<svg width="228" height="40" viewBox="0 0 228 40" fill="none" xmlns="http://www.w3.org/2000/svg">
<path d="M218.728 34C217.123 34 215.641 33.6049 214.284 32.8149C212.95 32.0248 211.889 30.9507 211.098 29.5928C210.308 28.2348 209.913 26.7534 209.913 25.1485V21.1487C209.913 19.5438 210.308 18.0624 211.098 16.7044C211.889 15.3465 212.95 14.2724 214.284 13.4823C215.641 12.6923 217.123 12.2972 218.728 12.2972C220.333 12.2972 221.802 12.6923 223.135 13.4823C224.493 14.2724 225.567 15.3465 226.357 16.7044C227.147 18.0624 227.542 19.5438 227.542 21.1487V23.6301C227.542 24.0745 227.382 24.4572 227.061 24.7782C226.764 25.0744 226.394 25.2226 225.95 25.2226H214.358V25.4078C214.358 26.6176 214.777 27.6546 215.617 28.5187C216.481 29.3582 217.518 29.7779 218.728 29.7779H224.616C224.839 29.7779 225.024 29.852 225.172 30.0002C225.32 30.1483 225.394 30.3335 225.394 30.5557V33.2222C225.394 33.4445 225.32 33.6296 225.172 33.7778C225.024 33.9259 224.839 34 224.616 34H218.728ZM223.098 21.2228V20.8894C223.098 19.6796 222.666 18.655 221.802 17.8155C220.962 16.9513 219.938 16.5193 218.728 16.5193C217.518 16.5193 216.481 16.9513 215.617 17.8155C214.777 18.655 214.358 19.6796 214.358 20.8894V21.2228H223.098Z" fill="#2D8E8E"/>
<path d="M199.74 34.4814C198.135 34.4814 196.653 34.0864 195.295 33.2963C193.962 32.5062 192.901 31.4322 192.11 30.0742C191.32 28.7163 190.925 27.2348 190.925 25.63V21.1487C190.925 19.5438 191.32 18.0624 192.11 16.7044C192.901 15.3465 193.962 14.2724 195.295 13.4823C196.653 12.6923 198.135 12.2972 199.74 12.2972C200.974 12.2972 202.159 12.5565 203.295 13.075C204.431 13.5688 205.406 14.2724 206.221 15.186C206.394 15.3588 206.48 15.5563 206.48 15.7785C206.48 16.0501 206.369 16.297 206.147 16.5193L204.554 18.1118C204.382 18.2846 204.184 18.371 203.962 18.371C203.74 18.371 203.53 18.2599 203.332 18.0377C202.369 17.0748 201.172 16.5933 199.74 16.5933C198.53 16.5933 197.493 17.0254 196.629 17.8896C195.789 18.729 195.37 19.7537 195.37 20.9635V25.8152C195.37 27.025 195.789 28.062 196.629 28.9261C197.493 29.7656 198.53 30.1853 199.74 30.1853C201.172 30.1853 202.369 29.7039 203.332 28.741C203.53 28.5187 203.74 28.4076 203.962 28.4076C204.184 28.4076 204.382 28.494 204.554 28.6669L206.147 30.2594C206.369 30.4816 206.48 30.7285 206.48 31.0001C206.48 31.2223 206.394 31.4199 206.221 31.5927C205.406 32.5062 204.431 33.2222 203.295 33.7407C202.159 34.2345 200.974 34.4814 199.74 34.4814Z" fill="#2D8E8E"/>
<path d="M175.993 34.4814C173.919 34.4814 172.228 33.9012 170.919 32.7408C169.635 31.5556 168.993 30.0248 168.993 28.1484C168.993 26.4448 169.586 25.0374 170.771 23.9263C171.956 22.7906 173.623 22.0499 175.771 21.7042C176.314 21.6548 176.832 21.5808 177.326 21.482C179.054 21.2845 180.104 21.1363 180.474 21.0376C181.388 20.8894 181.844 20.3709 181.844 19.4821C181.844 18.5685 181.462 17.8402 180.696 17.297C179.956 16.7291 179.017 16.4452 177.882 16.4452C175.882 16.4452 174.425 17.1735 173.511 18.6303C173.314 18.9512 173.079 19.1117 172.808 19.1117C172.61 19.1117 172.45 19.0624 172.326 18.9636L170.252 17.5562C170.03 17.4081 169.919 17.1982 169.919 16.9266C169.919 16.8526 169.944 16.7415 169.993 16.5933C170.709 15.2354 171.771 14.186 173.178 13.4453C174.586 12.6799 176.178 12.2972 177.956 12.2972C179.585 12.2972 181.017 12.6058 182.252 13.2231C183.486 13.8404 184.437 14.7169 185.104 15.8526C185.795 16.9884 186.141 18.297 186.141 19.7784V33.2222C186.141 33.4445 186.067 33.6296 185.918 33.7778C185.77 33.9259 185.585 34 185.363 34H182.844C182.622 34 182.437 33.9383 182.289 33.8148C182.141 33.6667 182.067 33.4691 182.067 33.2222V31.7779C180.363 33.5803 178.338 34.4814 175.993 34.4814ZM176.326 30.5187C177.289 30.5187 178.203 30.2718 179.067 29.7779C179.931 29.2841 180.622 28.6422 181.141 27.8521C181.684 27.0373 181.956 26.1855 181.956 25.2967V24.5559L179.178 24.9633C177.672 25.1362 176.697 25.272 176.252 25.3707C174.228 25.7411 173.215 26.6176 173.215 28.0002C173.215 28.7656 173.499 29.3829 174.067 29.852C174.635 30.2964 175.388 30.5187 176.326 30.5187Z" fill="#2D8E8E"/>
<path d="M151.953 34C151.73 34 151.545 33.9259 151.397 33.7778C151.249 33.6296 151.175 33.4445 151.175 33.2223V30.4816C151.175 30.2594 151.249 30.0742 151.397 29.9261C151.545 29.778 151.73 29.7039 151.953 29.7039H154.767V16.9637H151.582C151.36 16.9637 151.175 16.8896 151.027 16.7415C150.879 16.5933 150.804 16.4082 150.804 16.186V13.5564C150.804 13.3342 150.879 13.149 151.027 13.0009C151.175 12.8528 151.36 12.7787 151.582 12.7787H157.323C157.767 12.7787 158.137 12.9392 158.434 13.2602C158.755 13.5564 158.915 13.9268 158.915 14.3712V15.7045L160.915 14.112C161.656 13.5194 162.298 13.112 162.841 12.8898C163.384 12.6429 164.026 12.5194 164.767 12.5194H165.915C166.137 12.5194 166.322 12.5935 166.47 12.7417C166.619 12.8898 166.693 13.075 166.693 13.2972V16.1489C166.693 16.3711 166.619 16.5563 166.47 16.7044C166.322 16.8526 166.137 16.9267 165.915 16.9267H164.952C164.31 16.9267 163.755 17.0378 163.285 17.26C162.816 17.4822 162.1 17.976 161.137 18.7414L159.1 20.371V29.7039H162.767C162.989 29.7039 163.174 29.778 163.322 29.9261C163.471 30.0742 163.545 30.2594 163.545 30.4816V33.2223C163.545 33.4445 163.471 33.6296 163.322 33.7778C163.174 33.9259 162.989 34 162.767 34H151.953Z" fill="#2D8E8E"/>
<path d="M137.457 34C137.234 34 137.049 33.9259 136.901 33.7778C136.753 33.6296 136.679 33.4445 136.679 33.2223V11.8528H130.457C130.235 11.8528 130.05 11.7787 129.901 11.6306C129.753 11.4824 129.679 11.2973 129.679 11.0751V8.2974C129.679 8.07519 129.753 7.89001 129.901 7.74187C130.05 7.59372 130.235 7.51965 130.457 7.51965H147.419C147.641 7.51965 147.827 7.59372 147.975 7.74187C148.123 7.89001 148.197 8.07519 148.197 8.2974V11.0751C148.197 11.2973 148.123 11.4824 147.975 11.6306C147.827 11.7787 147.641 11.8528 147.419 11.8528H141.197V33.2223C141.197 33.4445 141.123 33.6296 140.975 33.7778C140.827 33.9259 140.642 34 140.419 34H137.457Z" fill="#2D8E8E"/>
<path d="M120.207 34C119.762 34 119.38 33.8518 119.059 33.5556C118.762 33.2346 118.614 32.8519 118.614 32.4075V9.92694H115.244C115.022 9.92694 114.837 9.85287 114.689 9.70473C114.54 9.55659 114.466 9.37141 114.466 9.1492V6.40857C114.466 6.18636 114.54 6.00118 114.689 5.85304C114.837 5.7049 115.022 5.63083 115.244 5.63083H121.466C121.91 5.63083 122.281 5.79132 122.577 6.11229C122.898 6.40857 123.059 6.77893 123.059 7.22335V29.7039H126.429C126.651 29.7039 126.836 29.7779 126.984 29.9261C127.132 30.0742 127.207 30.2594 127.207 30.4816V33.2222C127.207 33.4445 127.132 33.6296 126.984 33.7778C126.836 33.9259 126.651 34 126.429 34H120.207Z" fill="#2D8E8E"/>
<path d="M105.847 10.2973C105.625 10.2973 105.44 10.2232 105.292 10.0751C105.144 9.92696 105.07 9.74178 105.07 9.51957V5.4827C105.07 5.26049 105.144 5.07531 105.292 4.92717C105.44 4.77903 105.625 4.70496 105.847 4.70496H108.366C108.588 4.70496 108.773 4.77903 108.921 4.92717C109.07 5.07531 109.144 5.26049 109.144 5.4827V9.51957C109.144 9.74178 109.07 9.92696 108.921 10.0751C108.773 10.2232 108.588 10.2973 108.366 10.2973H105.847ZM106.736 34C106.218 34 105.773 33.8272 105.403 33.4815C105.057 33.1111 104.885 32.6667 104.885 32.1482V17.0007H101.885C101.662 17.0007 101.477 16.9267 101.329 16.7785C101.181 16.6304 101.107 16.4452 101.107 16.223V13.5564C101.107 13.3342 101.181 13.149 101.329 13.0009C101.477 12.8528 101.662 12.7787 101.885 12.7787H107.477C107.996 12.7787 108.428 12.9639 108.773 13.3342C109.144 13.6799 109.329 14.112 109.329 14.6305V29.778H112.329C112.551 29.778 112.736 29.852 112.884 30.0002C113.032 30.1483 113.106 30.3335 113.106 30.5557V33.2223C113.106 33.4445 113.032 33.6296 112.884 33.7778C112.736 33.9259 112.551 34 112.329 34H106.736Z" fill="#2D8E8E"/>
<path d="M86.9848 34.4814C84.9108 34.4814 83.2195 33.9012 81.9109 32.7408C80.6271 31.5556 79.9851 30.0248 79.9851 28.1484C79.9851 26.4448 80.5777 25.0374 81.7628 23.9263C82.9479 22.7906 84.6145 22.0499 86.7626 21.7042C87.3058 21.6548 87.8243 21.5808 88.3181 21.482C90.0464 21.2845 91.0957 21.1363 91.4661 21.0376C92.3796 20.8894 92.8364 20.3709 92.8364 19.4821C92.8364 18.5685 92.4537 17.8402 91.6883 17.297C90.9476 16.7291 90.0094 16.4452 88.8736 16.4452C86.8737 16.4452 85.417 17.1735 84.5034 18.6303C84.3059 18.9512 84.0714 19.1117 83.7998 19.1117C83.6022 19.1117 83.4417 19.0624 83.3183 18.9636L81.2443 17.5562C81.0221 17.4081 80.911 17.1982 80.911 16.9266C80.911 16.8526 80.9357 16.7415 80.9851 16.5933C81.7011 15.2354 82.7628 14.186 84.1701 13.4453C85.5775 12.6799 87.17 12.2972 88.9477 12.2972C90.5772 12.2972 92.0093 12.6058 93.2438 13.2231C94.4783 13.8404 95.4289 14.7169 96.0955 15.8526C96.7869 16.9884 97.1325 18.297 97.1325 19.7784V33.2222C97.1325 33.4445 97.0585 33.6296 96.9103 33.7778C96.7622 33.9259 96.577 34 96.3548 34H93.8364C93.6142 34 93.429 33.9383 93.2808 33.8148C93.1327 33.6667 93.0586 33.4691 93.0586 33.2222V31.7779C91.355 33.5803 89.3304 34.4814 86.9848 34.4814ZM87.3181 30.5187C88.281 30.5187 89.1946 30.2718 90.0588 29.7779C90.9229 29.2841 91.6142 28.6422 92.1327 27.8521C92.6759 27.0373 92.9475 26.1855 92.9475 25.2967V24.5559L90.1699 24.9633C88.6637 25.1362 87.6885 25.272 87.2441 25.3707C85.2195 25.7411 84.2071 26.6176 84.2071 28.0002C84.2071 28.7656 84.4911 29.3829 85.059 29.852C85.6268 30.2964 86.3799 30.5187 87.3181 30.5187Z" fill="#2D8E8E"/>
<path d="M59.666 34.2222C59.3944 34.2222 59.1475 34.1481 58.9253 34C58.7277 33.8519 58.592 33.6543 58.5179 33.4074L53.6292 18.4451L52.7033 15.1119L52.333 18.5562L50.7404 33.0741C50.6911 33.3457 50.5676 33.5679 50.3701 33.7407C50.1726 33.9136 49.9503 34 49.7034 34H46.9258C46.6542 34 46.4443 33.9136 46.2962 33.7407C46.148 33.5679 46.0863 33.3457 46.111 33.0741L49.1849 8.5196C49.2096 8.19863 49.3331 7.93938 49.5553 7.74186C49.8022 7.51964 50.0985 7.40854 50.4442 7.40854H53.8144C54.086 7.40854 54.3205 7.49495 54.5181 7.66779C54.7403 7.81593 54.8884 8.01345 54.9625 8.26035L60.5178 25.3337L61.2585 27.8891L61.9992 25.3707L67.5916 8.22332C67.6656 7.97642 67.8014 7.77889 67.999 7.63075C68.2212 7.48261 68.4681 7.40854 68.7397 7.40854H71.8136C72.1593 7.40854 72.4432 7.51964 72.6654 7.74186C72.9123 7.93938 73.0481 8.19863 73.0728 8.5196L76.1468 33.0741C76.1714 33.3457 76.1097 33.5679 75.9616 33.7407C75.8134 33.9136 75.6036 34 75.332 34H72.4432C72.1716 34 71.9371 33.9136 71.7395 33.7407C71.542 33.5679 71.4309 33.358 71.4062 33.1111L69.7396 18.297L69.3693 15.1119L68.4063 18.5932L63.6288 33.3704C63.5547 33.6173 63.4066 33.8272 63.1843 34C62.9868 34.1481 62.7523 34.2222 62.4807 34.2222H59.666Z" fill="#2D8E8E"/>
<path d="M4 20C8.41828 20 12 16.4183 12 12C16.4183 12 20 8.41828 20 4L11.68 4C7.43845 4 4 7.43845 4 11.68L4 20Z" fill="#2D8E8E"/>
<path d="M20 4C20 8.41828 23.5817 12 28 12C28 16.4183 31.5817 20 36 20V11.68C36 7.43845 32.5615 4 28.32 4H20Z" fill="#2D8E8E"/>
<path d="M36 20C31.5817 20 28 23.5817 28 28C23.5817 28 20 31.5817 20 36H28.32C32.5615 36 36 32.5615 36 28.32V20Z" fill="#2D8E8E"/>
<path d="M20 36C20 31.5817 16.4183 28 12 28C12 23.5817 8.41828 20 4 20L4 28.32C4 32.5615 7.43845 36 11.68 36H20Z" fill="#2D8E8E"/>
<path d="M26.4001 20C26.4001 23.5346 23.5347 26.4 20.0001 26.4C16.4655 26.4 13.6001 23.5346 13.6001 20C13.6001 16.4654 16.4655 13.6 20.0001 13.6C23.5347 13.6 26.4001 16.4654 26.4001 20Z" fill="#F46035"/>
</svg>
